<svg xmlns="http://www.w3.org/2000/svg" viewBox="0 0 24 24">
  <defs>
    <linearGradient id="gradient" x1="0%" y1="0%" x2="100%" y2="100%">
      <stop offset="0%" style="stop-color:#91C788"/>
      <stop offset="100%" style="stop-color:#52B788"/>
    </linearGradient>
  </defs>
  <path fill="url(#gradient)" d="M12 2C6.48 2 2 6.48 2 12s4.48 10 10 10 10-4.48 10-10S17.52 2 12 2zm0 18c-4.41 0-8-3.59-8-8s3.59-8 8-8 8 3.59 8 8-3.59 8-8 8z"/>
  <path fill="url(#gradient)" d="M12 6c-3.31 0-6 2.69-6 6s2.69 6 6 6 6-2.69 6-6-2.69-6-6-6zm0 10c-2.21 0-4-1.79-4-4s1.79-4 4-4 4 1.79 4 4-1.79 4-4 4z"/>
  <circle fill="url(#gradient)" cx="12" cy="12" r="2"/>
  <path fill="url(#gradient)" d="M15 9l-2 2-2-2-2 2 2 2-2 2 2 2 2-2 2 2 2-2-2-2 2-2z"/>
</svg> 